<?xml version="1.0" encoding="UTF-8"?>
<svg width="24px" height="17px" viewBox="0 0 24 17" version="1.1" xmlns="http://www.w3.org/2000/svg" xmlns:xlink="http://www.w3.org/1999/xlink">
    <!-- Generator: sketchtool 51.3 (57544) - http://www.bohemiancoding.com/sketch -->
    <title>8F3BBA50-4617-4DD7-BFE3-AC92A4DE4A0A</title>
    <desc>Created with sketchtool.</desc>
    <defs></defs>
    <g id="style-guide" stroke="none" stroke-width="1" fill="none" fill-rule="evenodd">
        <g id="icons" transform="translate(-284.000000, -25.000000)" fill="#6AB7B1" fill-rule="nonzero">
            <g id="dimetions_ico" transform="translate(283.000000, 25.000000)">
                <g id="Group">
                    <path d="M13.914374,16.2004995 L12.713043,16.2004995 L13.3137085,15.749219 L13.914374,16.2004995 Z M13.3137085,15.749219 L22.9625968,8.5 L24.627417,8.5 L13.3137085,17 L2,8.5 L3.6648202,8.5 L13.3137085,15.749219 Z M13.914374,16.2004995 L12.713043,16.2004995 L13.3137085,15.749219 L13.914374,16.2004995 Z M22.9625968,8.5 L24.627417,8.5 L13.3137085,17 L2,8.5 L3.6648202,8.5 L13.3137085,15.749219 L22.9625968,8.5 Z" id="Rectangle-23"></path>
                    <path d="M14.2592525,2.70049952 L13.0579215,2.70049952 L13.658587,2.24921901 L14.2592525,2.70049952 Z M13.658587,2.24921901 L16.6523528,0 L18.317173,0 L13.658587,3.5 L9.000001,0 L10.6648212,0 L13.658587,2.24921901 Z M13.658587,2.24921901 L14.2592525,2.70049952 L13.0579215,2.70049952 L13.658587,2.24921901 Z M13.658587,2.24921901 L16.6523528,-4.4408921e-16 L18.317173,-4.4408921e-16 L13.658587,3.5 L9.000001,-4.4408921e-16 L10.6648212,0 L13.658587,2.24921901 Z" id="Rectangle-23" transform="translate(13.658587, 1.750000) rotate(-180.000000) translate(-13.658587, -1.750000) "></path>
                    <path d="M24.400319,9.20049984 L23.198988,9.20049984 L23.7996535,8.74921928 L24.400319,9.20049984 Z M25.2745408,7.641135 L26.939361,7.641135 L23.7996535,10.0000003 L20.659946,7.641135 L22.3247662,7.641135 L23.7996535,8.74921928 L25.2745408,7.641135 Z M24.400319,9.20049984 L23.198988,9.20049984 L23.7996535,8.74921928 L24.400319,9.20049984 Z M25.2745408,7.641135 L26.939361,7.641135 L23.7996535,10.0000003 L20.659946,7.641135 L22.3247662,7.641135 L23.7996535,8.74921928 L25.2745408,7.641135 Z" id="Rectangle-23" transform="translate(23.799654, 8.820568) rotate(-126.000000) translate(-23.799654, -8.820568) "></path>
                    <path d="M3.40032037,9.20049984 L2.19898943,9.20049984 L2.7996549,8.74921928 L3.40032037,9.20049984 Z M2.7996549,8.74921928 L4.27454223,7.641135 L5.9393624,7.641135 L2.7996549,10.0000003 L-0.3400526,7.641135 L1.32476757,7.641135 L2.7996549,8.74921928 Z M3.40032037,9.20049984 L2.19898943,9.20049984 L2.7996549,8.74921928 L3.40032037,9.20049984 Z M2.7996549,8.74921928 L4.27454223,7.641135 L5.9393624,7.641135 L2.7996549,10.0000003 L-0.3400526,7.641135 L1.32476757,7.641135 L2.7996549,8.74921928 Z" id="Rectangle-23" transform="translate(2.799655, 8.820568) scale(-1, 1) rotate(-126.000000) translate(-2.799655, -8.820568) "></path>
                    <polygon id="Line" points="14 15.9999996 13 15.9999996 13 1.00000003 14 1.00000003"></polygon>
                </g>
            </g>
        </g>
    </g>
</svg>