<svg xmlns="http://www.w3.org/2000/svg" viewBox="0 0 440.3 36.24"><defs><style>.cls-1{fill:#fff;}.cls-2{fill:#6cb7b1;}</style></defs><title>dare-donate</title><g id="Layer_2" data-name="Layer 2"><g id="Layer_1-2" data-name="Layer 1"><path class="cls-1" d="M0,.57H12.88C23.25.57,30.42,7.69,30.42,17v.09c0,9.3-7.17,16.51-17.54,16.51H0ZM7.26,7.12V27h5.62c5.94,0,9.95-4,9.95-9.86v-.1c0-5.84-4-9.95-9.95-9.95Z"/><path class="cls-1" d="M45.85.33h6.7L66.7,33.58H59.1l-3-7.4h-14l-3,7.4H31.7Zm7.64,19.43L49.1,9.06l-4.38,10.7Z"/><path class="cls-1" d="M71.79.57h15.1c4.19,0,7.45,1.18,9.62,3.35a10.34,10.34,0,0,1,2.83,7.54v.1a10.25,10.25,0,0,1-7.08,10.23l8.07,11.79H91.84L84.76,23h-5.7V33.58H71.79Zm14.63,16C90,16.6,92,14.72,92,11.93v-.09c0-3.11-2.17-4.72-5.71-4.72H79.06V16.6Z"/><path class="cls-1" d="M105.9.57h24.9V7H113.11v6.7h15.57v6.46H113.11v6.93H131v6.46H105.9Z"/><path class="cls-1" d="M159.34,7.26H149.29V.57h27.36V7.26H166.6V33.58h-7.26Z"/><path class="cls-1" d="M179.34,17.17v-.1C179.34,7.69,186.75,0,196.93,0s17.5,7.59,17.5,17v.09c0,9.39-7.4,17.08-17.59,17.08S179.34,26.55,179.34,17.17Zm27.5,0v-.1c0-5.66-4.15-10.37-10-10.37s-9.91,4.62-9.91,10.28v.09c0,5.66,4.15,10.38,10,10.38S206.84,22.83,206.84,17.17Z"/><path class="cls-1" d="M235.05.57h12.87C258.3.57,265.47,7.69,265.47,17v.09c0,9.3-7.17,16.51-17.55,16.51H235.05Zm7.26,6.55V27h5.61c6,0,10-4,10-9.86v-.1c0-5.84-4-9.95-10-9.95Z"/><path class="cls-1" d="M270.47,17.17v-.1c0-9.38,7.41-17.07,17.6-17.07s17.49,7.59,17.49,17v.09c0,9.39-7.4,17.08-17.59,17.08S270.47,26.55,270.47,17.17Zm27.5,0v-.1c0-5.66-4.15-10.37-10-10.37s-9.9,4.62-9.9,10.28v.09c0,5.66,4.15,10.38,10,10.38S298,22.83,298,17.17Z"/><path class="cls-1" d="M312,.57h6.7L334.2,20.89V.57h7.17v33h-6.18l-16-21v21H312Z"/><path class="cls-1" d="M360.61.33h6.7l14.15,33.25h-7.59l-3-7.4h-14l-3,7.4h-7.41Zm7.64,19.43-4.38-10.7-4.39,10.7Z"/><path class="cls-1" d="M390,7.26H380V.57h27.36V7.26H397.26V33.58H390Z"/><path class="cls-1" d="M412.88.57h24.9V7H420.09v6.7h15.57v6.46H420.09v6.93H438v6.46H412.88Z"/><path class="cls-2" d="M2.29,2.66H15.16c10.38,0,17.55,7.12,17.55,16.42v.09c0,9.29-7.17,16.51-17.55,16.51H2.29ZM9.55,9.22v19.9h5.61c5.95,0,10-4,10-9.86v-.09c0-5.85-4-10-10-10Z"/><path class="cls-2" d="M48.14,2.43h6.69L69,35.68H61.39l-3-7.41h-14l-3,7.41H34Zm7.64,19.43L51.39,11.15,47,21.86Z"/><path class="cls-2" d="M74.08,2.66H89.17c4.2,0,7.46,1.18,9.62,3.35a10.37,10.37,0,0,1,2.84,7.55v.09a10.26,10.26,0,0,1-7.08,10.24l8.07,11.79H94.13L87.05,25.11H81.34V35.68H74.08Zm14.62,16c3.54,0,5.57-1.89,5.57-4.67v-.09c0-3.12-2.17-4.72-5.71-4.72H81.34V18.7Z"/><path class="cls-2" d="M108.18,2.66h24.91V9.12H115.4v6.7H131v6.46H115.4v6.94h17.92v6.46H108.18Z"/><path class="cls-2" d="M161.63,9.36h-10V2.66h27.36v6.7H168.89V35.68h-7.26Z"/><path class="cls-2" d="M181.63,19.26v-.09c0-9.39,7.4-17.07,17.59-17.07s17.5,7.59,17.5,17v.09c0,9.39-7.41,17.07-17.59,17.07S181.63,28.65,181.63,19.26Zm27.5,0v-.09c0-5.66-4.16-10.38-10-10.38s-9.91,4.63-9.91,10.29v.09c0,5.66,4.15,10.38,10,10.38S209.13,24.92,209.13,19.26Z"/><path class="cls-2" d="M237.33,2.66h12.88c10.38,0,17.55,7.12,17.55,16.42v.09c0,9.29-7.17,16.51-17.55,16.51H237.33Zm7.27,6.56v19.9h5.61c5.94,0,10-4,10-9.86v-.09c0-5.85-4-10-10-10Z"/><path class="cls-2" d="M272.76,19.26v-.09c0-9.39,7.41-17.07,17.59-17.07s17.5,7.59,17.5,17v.09c0,9.39-7.4,17.07-17.59,17.07S272.76,28.65,272.76,19.26Zm27.5,0v-.09c0-5.66-4.15-10.38-10-10.38s-9.91,4.63-9.91,10.29v.09c0,5.66,4.15,10.38,10,10.38S300.26,24.92,300.26,19.26Z"/><path class="cls-2" d="M314.32,2.66H321L336.48,23V2.66h7.17v33h-6.18l-16-21v21h-7.17Z"/><path class="cls-2" d="M362.9,2.43h6.7l14.15,33.25h-7.6l-3-7.41h-14l-3,7.41h-7.41Zm7.64,19.43-4.38-10.71-4.39,10.71Z"/><path class="cls-2" d="M392.29,9.36H382.24V2.66H409.6v6.7H399.55V35.68h-7.26Z"/><path class="cls-2" d="M415.17,2.66h24.9V9.12H422.38v6.7H438v6.46H422.38v6.94H440.3v6.46H415.17Z"/></g></g></svg>