<?xml version="1.0" encoding="utf-8"?>
<!-- Generator: Adobe Illustrator 17.1.0, SVG Export Plug-In . SVG Version: 6.00 Build 0)  -->
<!DOCTYPE svg PUBLIC "-//W3C//DTD SVG 1.1//EN" "http://www.w3.org/Graphics/SVG/1.1/DTD/svg11.dtd">
<svg version="1.1" id="Layer_1" xmlns="http://www.w3.org/2000/svg" xmlns:xlink="http://www.w3.org/1999/xlink" x="0px" y="0px"
	 viewBox="0 0 60 60" enable-background="new 0 0 60 60" xml:space="preserve">
<g>
	<g>
		<path fill="#69C7C2" d="M30,5.5c13.5,0,24.5,11,24.5,24.5S43.5,54.5,30,54.5S5.5,43.5,5.5,30S16.5,5.5,30,5.5 M30,4.5
			C15.9,4.5,4.5,15.9,4.5,30c0,14.1,11.4,25.5,25.5,25.5c14.1,0,25.5-11.4,25.5-25.5C55.5,15.9,44.1,4.5,30,4.5L30,4.5z"/>
	</g>
	<line fill="none" stroke="#69C7C2" stroke-miterlimit="10" x1="30.1" y1="18.2" x2="30.1" y2="40.2"/>
	<polyline fill="none" stroke="#69C7C2" stroke-miterlimit="10" points="22.5,33.7 30,40.7 37.5,33.7 	"/>
</g>
</svg>
