<?xml version="1.0" encoding="utf-8"?>
<!-- Generator: Adobe Illustrator 22.1.0, SVG Export Plug-In . SVG Version: 6.00 Build 0)  -->
<svg version="1.1" id="Layer_1" xmlns="http://www.w3.org/2000/svg" xmlns:xlink="http://www.w3.org/1999/xlink" x="0px" y="0px"
	 viewBox="0 0 792 237.9" style="enable-background:new 0 0 792 237.9;" xml:space="preserve">
<style type="text/css">
	.st0{fill:#6AB7B1;}
	.st1{fill:#9D9596;}
</style>
<g>
	<path class="st0" d="M305,0l46.7,116.9l36.9-43.2l36.9,43.2L472.2,0L305,0L305,0z M452.3,13.4l-16,40.1l-34.2-40.1H452.3z
		 M375.3,13.4l-34.2,40.1l-16-40.1H375.3z M421.3,91.1l-32.7-39.3l-32.7,39.3l-9.1-23.3L388.6,19l41.8,48.8L421.3,91.1z"/>
</g>
<g>
	<polygon class="st1" points="38.8,186.7 33.2,186.7 4.5,216.1 4.5,186.7 0,186.7 0,237.9 4.5,237.9 4.5,222.1 14,211.9 34.3,237.9 
		39.6,237.9 17,209.3 	"/>
	<polygon class="st1" points="80,213.9 106,213.9 106,209.3 80,209.3 80,190.8 109.3,190.8 109.3,186.7 75.4,186.7 75.4,237.9 
		110.2,237.9 110.2,233.4 80,233.4 	"/>
	<polygon class="st1" points="153.2,186.7 148.6,186.7 148.6,237.9 183.3,237.9 183.3,233.4 153.2,233.4 	"/>
	<polygon class="st1" points="221,186.7 216.9,186.7 216.9,237.9 251.2,237.9 251.2,233.4 221,233.4 	"/>
	<polygon class="st1" points="298,213.9 280.2,186.7 275.3,186.7 295.7,217.9 295.7,237.9 300.2,237.9 300.2,218.3 321,186.7 
		315.7,186.7 	"/>
	<polygon class="st1" points="450.7,231.6 440.8,208.2 449.9,187.1 445.4,187.1 438.3,203.7 431.5,187.1 426.6,187.1 435.9,208.2 
		425.8,231.6 406.6,186.7 402,186.7 423.9,237.9 427.7,237.9 438.3,213 449.2,237.9 452.6,237.9 474.9,186.7 469.9,186.7 	"/>
	<polygon class="st1" points="526.5,213.9 508.8,186.7 503.8,186.7 524.2,217.9 524.2,237.9 528.8,237.9 528.8,218.3 549.5,186.7 
		544.2,186.7 	"/>
	<polygon class="st1" points="623.8,230.1 589.1,186.7 585.7,186.7 585.7,237.9 590.2,237.9 590.2,195 624.6,237.9 628.3,237.9 
		628.3,186.7 623.8,186.7 	"/>
	<polygon class="st1" points="709.8,230.1 675.1,186.7 671.7,186.7 671.7,237.9 675.8,237.9 675.8,195 710.2,237.9 713.9,237.9 
		713.9,186.7 709.8,186.7 	"/>
	<polygon class="st1" points="761.8,233.4 761.8,213.9 787.8,213.9 787.8,209.3 761.8,209.3 761.8,190.8 791.3,190.8 791.3,186.7 
		757.4,186.7 757.4,237.9 792,237.9 792,233.4 	"/>
</g>
</svg>
