<?xml version="1.0" encoding="utf-8"?>
<!-- Generator: Adobe Illustrator 17.1.0, SVG Export Plug-In . SVG Version: 6.00 Build 0)  -->
<!DOCTYPE svg PUBLIC "-//W3C//DTD SVG 1.1//EN" "http://www.w3.org/Graphics/SVG/1.1/DTD/svg11.dtd">
<svg version="1.1" id="Layer_1" xmlns="http://www.w3.org/2000/svg" xmlns:xlink="http://www.w3.org/1999/xlink" x="0px" y="0px"
	 viewBox="0 0 214 130" enable-background="new 0 0 214 130" xml:space="preserve">
<g>
	<path fill="#72C8CD" d="M43,3.3l36.3,90.8L108,60.5l28.7,33.6L173,3.3H43z M157.4,13.7L145,44.9l-26.6-31.2H157.4z M97.6,13.7
		L71,44.9L58.6,13.7H97.6z M133.4,74.1L108,43.6L82.6,74.1L75.5,56L108,18l32.5,38L133.4,74.1z"/>
</g>
<g>
	<polygon fill="#9D9596" points="13.3,113.1 11.8,113.1 4.2,120.9 4.2,113.1 3,113.1 3,126.7 4.2,126.7 4.2,122.5 6.7,119.8 
		12.1,126.7 13.5,126.7 7.5,119.1 	"/>
	<polygon fill="#9D9596" points="24.2,120.3 31.1,120.3 31.1,119.1 24.2,119.1 24.2,114.2 32,114.2 32,113.1 23,113.1 23,126.7 
		32.2,126.7 32.2,125.5 24.2,125.5 	"/>
	<polygon fill="#9D9596" points="43.6,113.1 42.4,113.1 42.4,126.7 51.6,126.7 51.6,125.5 43.6,125.5 	"/>
	<polygon fill="#9D9596" points="61.6,113.1 60.5,113.1 60.5,126.7 69.6,126.7 69.6,125.5 61.6,125.5 	"/>
	<polygon fill="#9D9596" points="82,120.3 77.3,113.1 76,113.1 81.4,121.4 81.4,126.7 82.6,126.7 82.6,121.5 88.1,113.1 86.7,113.1 
			"/>
	<polygon fill="#9D9596" points="122.5,125 119.9,118.8 122.3,113.2 121.1,113.2 119.2,117.6 117.4,113.2 116.1,113.2 118.6,118.8 
		115.9,125 110.8,113.1 109.6,113.1 115.4,126.7 116.4,126.7 119.2,120.1 122.1,126.7 123,126.7 128.9,113.1 127.6,113.1 	"/>
	<polygon fill="#9D9596" points="142.6,120.3 137.9,113.1 136.6,113.1 142,121.4 142,126.7 143.2,126.7 143.2,121.5 148.7,113.1 
		147.3,113.1 	"/>
	<polygon fill="#9D9596" points="168.4,124.6 159.2,113.1 158.3,113.1 158.3,126.7 159.5,126.7 159.5,115.3 168.6,126.7 
		169.6,126.7 169.6,113.1 168.4,113.1 	"/>
	<polygon fill="#9D9596" points="191.2,124.6 182,113.1 181.1,113.1 181.1,126.7 182.2,126.7 182.2,115.3 191.3,126.7 192.3,126.7 
		192.3,113.1 191.2,113.1 	"/>
	<polygon fill="#9D9596" points="205,125.5 205,120.3 211.9,120.3 211.9,119.1 205,119.1 205,114.2 212.8,114.2 212.8,113.1 
		203.8,113.1 203.8,126.7 213,126.7 213,125.5 	"/>
</g>
</svg>
