<?xml version="1.0" encoding="UTF-8"?>
<svg width="17px" height="17px" viewBox="0 0 17 17" version="1.1" xmlns="http://www.w3.org/2000/svg" xmlns:xlink="http://www.w3.org/1999/xlink">
    <!-- Generator: sketchtool 51.3 (57544) - http://www.bohemiancoding.com/sketch -->
    <title>0F3A7F36-8D7F-4223-80D3-668CE2980A54</title>
    <desc>Created with sketchtool.</desc>
    <defs></defs>
    <g id="style-guide" stroke="none" stroke-width="1" fill="none" fill-rule="evenodd">
        <g id="icons" transform="translate(-323.000000, -23.000000)" fill="#6AB7B1" fill-rule="nonzero">
            <g id="materials_ico" transform="translate(323.000000, 23.000000)">
                <path d="M1,12 L1,13 L0,12 L1,12 Z M1,12 L1,1 L12,1 L12,4.00000016 L13,4.00000016 L13,0 L0,0 L0,13 L4.00000016,13 L4.00000016,12 L1,12 Z M1,1 L0,1 L1,0 L1,1 Z M12,1 L12,0 L13,1 L12,1 Z M12,1 L12,0 L13,1 L12,1 Z M12,1 L12,4.00000016 L13,4.00000016 L13,0 L0,0 L0,13 L4.00000016,13 L4.00000016,12 L1,12 L1,1 L12,1 Z M1,1 L0,1 L1,0 L1,1 Z M1,12 L1,13 L0,12 L1,12 Z" id="Combined-Shape"></path>
                <path d="M5,5 L5,16 L16,16 L16,5 L5,5 Z M4,4 L17,4 L17,17 L4,17 L4,4 Z" id="Rectangle-21"></path>
            </g>
        </g>
    </g>
</svg>